<svg width="27" height="26" viewBox="0 0 27 26" fill="none" xmlns="http://www.w3.org/2000/svg">
<path d="M21.5628 16.2727C21.4176 16.6018 21.3742 16.9668 21.4384 17.3206C21.5026 17.6745 21.6713 18.0011 21.9228 18.2582L21.9882 18.3236C22.1911 18.5263 22.352 18.7669 22.4618 19.0318C22.5716 19.2966 22.6281 19.5805 22.6281 19.8673C22.6281 20.154 22.5716 20.4379 22.4618 20.7028C22.352 20.9676 22.1911 21.2083 21.9882 21.4109C21.7856 21.6138 21.545 21.7747 21.2801 21.8845C21.0152 21.9943 20.7313 22.0508 20.4446 22.0508C20.1579 22.0508 19.874 21.9943 19.6091 21.8845C19.3442 21.7747 19.1036 21.6138 18.901 21.4109L18.8355 21.3455C18.5784 21.094 18.2519 20.9253 17.898 20.8611C17.5441 20.7969 17.1791 20.8402 16.8501 20.9855C16.5274 21.1237 16.2522 21.3534 16.0584 21.646C15.8646 21.9387 15.7605 22.2817 15.7591 22.6327V22.8182C15.7591 23.3968 15.5293 23.9518 15.1201 24.361C14.7109 24.7701 14.156 25 13.5773 25C12.9987 25 12.4437 24.7701 12.0345 24.361C11.6254 23.9518 11.3955 23.3968 11.3955 22.8182V22.72C11.3871 22.3589 11.2702 22.0087 11.0601 21.7149C10.8499 21.4212 10.5563 21.1974 10.2173 21.0727C9.88829 20.9275 9.5233 20.8842 9.16941 20.9484C8.81552 21.0125 8.48897 21.1812 8.23187 21.4327L8.16642 21.4982C7.96378 21.701 7.72315 21.862 7.45828 21.9718C7.19342 22.0816 6.9095 22.1381 6.62278 22.1381C6.33605 22.1381 6.05214 22.0816 5.78727 21.9718C5.5224 21.862 5.28177 21.701 5.07914 21.4982C4.87628 21.2956 4.71536 21.0549 4.60556 20.7901C4.49576 20.5252 4.43924 20.2413 4.43924 19.9545C4.43924 19.6678 4.49576 19.3839 4.60556 19.119C4.71536 18.8542 4.87628 18.6135 5.07914 18.4109L5.1446 18.3455C5.39609 18.0884 5.5648 17.7618 5.62897 17.4079C5.69313 17.054 5.64981 16.689 5.5046 16.36C5.36631 16.0373 5.13669 15.7622 4.84401 15.5683C4.55133 15.3745 4.20836 15.2705 3.85732 15.2691H3.67187C3.09322 15.2691 2.53826 15.0392 2.12909 14.6301C1.71992 14.2209 1.49005 13.6659 1.49005 13.0873C1.49005 12.5086 1.71992 11.9537 2.12909 11.5445C2.53826 11.1353 3.09322 10.9055 3.67187 10.9055H3.77005C4.13114 10.897 4.48133 10.7801 4.7751 10.57C5.06888 10.3599 5.29265 10.0663 5.41732 9.72727C5.56254 9.39824 5.60586 9.03324 5.54169 8.67936C5.47753 8.32547 5.30882 7.99892 5.05732 7.74182L4.99187 7.67636C4.78901 7.47373 4.62808 7.2331 4.51828 6.96823C4.40849 6.70336 4.35197 6.41945 4.35197 6.13273C4.35197 5.846 4.40849 5.56209 4.51828 5.29722C4.62808 5.03235 4.78901 4.79172 4.99187 4.58909C5.1945 4.38623 5.43513 4.2253 5.7 4.11551C5.96487 4.00571 6.24878 3.94919 6.53551 3.94919C6.82223 3.94919 7.10614 4.00571 7.37101 4.11551C7.63588 4.2253 7.87651 4.38623 8.07914 4.58909L8.1446 4.65455C8.4017 4.90604 8.72825 5.07475 9.08214 5.13891C9.43602 5.20308 9.80102 5.15976 10.1301 5.01455H10.2173C10.54 4.87626 10.8152 4.64664 11.009 4.35396C11.2028 4.06128 11.3068 3.71831 11.3082 3.36727V3.18182C11.3082 2.60316 11.5381 2.04821 11.9473 1.63904C12.3564 1.22987 12.9114 1 13.4901 1C14.0687 1 14.6237 1.22987 15.0328 1.63904C15.442 2.04821 15.6719 2.60316 15.6719 3.18182V3.28C15.6733 3.63104 15.7773 3.97401 15.9711 4.26669C16.1649 4.55937 16.4401 4.78899 16.7628 4.92727C17.0918 5.07249 17.4568 5.11581 17.8107 5.05164C18.1646 4.98748 18.4911 4.81877 18.7482 4.56727L18.8137 4.50182C19.0163 4.29896 19.257 4.13803 19.5218 4.02823C19.7867 3.91844 20.0706 3.86192 20.3573 3.86192C20.644 3.86192 20.928 3.91844 21.1928 4.02823C21.4577 4.13803 21.6983 4.29896 21.901 4.50182C22.1038 4.70445 22.2647 4.94508 22.3745 5.20995C22.4843 5.47482 22.5409 5.75873 22.5409 6.04545C22.5409 6.33218 22.4843 6.61609 22.3745 6.88096C22.2647 7.14583 22.1038 7.38646 21.901 7.58909L21.8355 7.65455C21.584 7.91165 21.4153 8.2382 21.3511 8.59208C21.287 8.94597 21.3303 9.31096 21.4755 9.64V9.72727C21.6138 10.0499 21.8434 10.3251 22.1361 10.5189C22.4288 10.7128 22.7717 10.8168 23.1228 10.8182H23.3082C23.8869 10.8182 24.4418 11.0481 24.851 11.4572C25.2602 11.8664 25.4901 12.4213 25.4901 13C25.4901 13.5787 25.2602 14.1336 24.851 14.5428C24.4418 14.9519 23.8869 15.1818 23.3082 15.1818H23.2101C22.859 15.1832 22.516 15.2872 22.2234 15.4811C21.9307 15.6749 21.7011 15.9501 21.5628 16.2727Z" fill="#D9D9D9" stroke="#D9D9D9" stroke-width="1.65714" stroke-linecap="round" stroke-linejoin="round"/>
<path d="M13.49 16.2725C15.2975 16.2725 16.7627 14.8072 16.7627 12.9998C16.7627 11.1923 15.2975 9.72703 13.49 9.72703C11.6825 9.72703 10.2173 11.1923 10.2173 12.9998C10.2173 14.8072 11.6825 16.2725 13.49 16.2725Z" fill="#272727" stroke="#D9D9D9" stroke-width="1.65714" stroke-linecap="round" stroke-linejoin="round"/>
</svg>
