<svg width="26" height="26" viewBox="0 0 26 26" fill="none" xmlns="http://www.w3.org/2000/svg">
<path d="M11.2738 12.293L1.91869 21.9823C1.41773 22.5011 1.41773 23.3424 1.91869 23.8612L2.67012 24.6395C3.17108 25.1583 3.98329 25.1583 4.48425 24.6395L13.8393 14.9502M11.2738 12.293L15.4979 7.91811C15.9989 7.39926 16.811 7.39926 17.3121 7.91811L18.0634 8.69637C18.5645 9.21523 18.5645 10.0564 18.0634 10.5753L13.8393 14.9502M11.2738 12.293L13.8393 14.9502L11.2738 12.293ZM16.4049 3.65718V1V3.65718ZM22.1774 9.63583H24.743H22.1774ZM20.6421 14.0246L22.4562 15.9035L20.6421 14.0246ZM10.3535 3.36817L12.1676 5.24709L10.3535 3.36817ZM22.4564 3.36829L20.6423 5.24721L22.4564 3.36829Z" fill="#343434"/>
<path d="M11.2738 12.293L1.91869 21.9823C1.41773 22.5011 1.41773 23.3424 1.91869 23.8612L2.67012 24.6395C3.17108 25.1583 3.98329 25.1583 4.48425 24.6395L13.8393 14.9502M11.2738 12.293L15.4979 7.91811C15.9989 7.39926 16.811 7.39926 17.3121 7.91811L18.0634 8.69637C18.5645 9.21523 18.5645 10.0564 18.0634 10.5753L13.8393 14.9502M11.2738 12.293L13.8393 14.9502M16.4049 3.65718V1M22.1774 9.63583H24.743M20.6421 14.0246L22.4562 15.9035M10.3535 3.36817L12.1676 5.24709M22.4564 3.36829L20.6423 5.24721" stroke="#343434" stroke-width="1.65714" stroke-linecap="round"/>
</svg>
