<svg width="26" height="26" viewBox="0 0 26 26" fill="none" xmlns="http://www.w3.org/2000/svg">
<path d="M11.2737 12.293L1.91857 21.9823C1.41761 22.5011 1.41761 23.3424 1.91857 23.8612L2.67 24.6395C3.17096 25.1583 3.98316 25.1583 4.48413 24.6395L13.8392 14.9502M11.2737 12.293L15.4977 7.91811C15.9988 7.39926 16.8109 7.39926 17.312 7.91811L18.0633 8.69637C18.5643 9.21523 18.5643 10.0564 18.0633 10.5753L13.8392 14.9502M11.2737 12.293L13.8392 14.9502L11.2737 12.293ZM16.4048 3.65718V1V3.65718ZM22.1773 9.63583H24.7428H22.1773ZM20.6419 14.0246L22.456 15.9035L20.6419 14.0246ZM10.3534 3.36817L12.1675 5.24709L10.3534 3.36817ZM22.4563 3.36829L20.6422 5.24721L22.4563 3.36829Z" fill="#D9D9D9"/>
<path d="M11.2737 12.293L1.91857 21.9823C1.41761 22.5011 1.41761 23.3424 1.91857 23.8612L2.67 24.6395C3.17096 25.1583 3.98316 25.1583 4.48413 24.6395L13.8392 14.9502M11.2737 12.293L15.4977 7.91811C15.9988 7.39926 16.8109 7.39926 17.312 7.91811L18.0633 8.69637C18.5643 9.21523 18.5643 10.0564 18.0633 10.5753L13.8392 14.9502M11.2737 12.293L13.8392 14.9502M16.4048 3.65718V1M22.1773 9.63583H24.7428M20.6419 14.0246L22.456 15.9035M10.3534 3.36817L12.1675 5.24709M22.4563 3.36829L20.6422 5.24721" stroke="#D9D9D9" stroke-width="1.65714" stroke-linecap="round"/>
</svg>
