<svg width="27" height="26" viewBox="0 0 27 26" fill="none" xmlns="http://www.w3.org/2000/svg">
<path d="M21.563 16.2727C21.4177 16.6018 21.3744 16.9668 21.4386 17.3206C21.5028 17.6745 21.6715 18.0011 21.923 18.2582L21.9884 18.3236C22.1913 18.5263 22.3522 18.7669 22.462 19.0318C22.5718 19.2966 22.6283 19.5805 22.6283 19.8673C22.6283 20.154 22.5718 20.4379 22.462 20.7028C22.3522 20.9676 22.1913 21.2083 21.9884 21.4109C21.7858 21.6138 21.5452 21.7747 21.2803 21.8845C21.0154 21.9943 20.7315 22.0508 20.4448 22.0508C20.1581 22.0508 19.8741 21.9943 19.6093 21.8845C19.3444 21.7747 19.1038 21.6138 18.9011 21.4109L18.8357 21.3455C18.5786 21.094 18.252 20.9253 17.8981 20.8611C17.5443 20.7969 17.1793 20.8402 16.8502 20.9855C16.5276 21.1237 16.2524 21.3534 16.0586 21.646C15.8647 21.9387 15.7607 22.2817 15.7593 22.6327V22.8182C15.7593 23.3968 15.5295 23.9518 15.1203 24.361C14.7111 24.7701 14.1562 25 13.5775 25C12.9989 25 12.4439 24.7701 12.0347 24.361C11.6256 23.9518 11.3957 23.3968 11.3957 22.8182V22.72C11.3872 22.3589 11.2704 22.0087 11.0602 21.7149C10.8501 21.4212 10.5565 21.1974 10.2175 21.0727C9.88847 20.9275 9.52348 20.8842 9.16959 20.9484C8.81571 21.0125 8.48916 21.1812 8.23205 21.4327L8.1666 21.4982C7.96397 21.701 7.72334 21.862 7.45847 21.9718C7.1936 22.0816 6.90969 22.1381 6.62296 22.1381C6.33624 22.1381 6.05232 22.0816 5.78746 21.9718C5.52259 21.862 5.28196 21.701 5.07933 21.4982C4.87647 21.2956 4.71554 21.0549 4.60574 20.7901C4.49594 20.5252 4.43943 20.2413 4.43943 19.9545C4.43943 19.6678 4.49594 19.3839 4.60574 19.119C4.71554 18.8542 4.87647 18.6135 5.07933 18.4109L5.14478 18.3455C5.39627 18.0884 5.56498 17.7618 5.62915 17.4079C5.69331 17.054 5.65 16.689 5.50478 16.36C5.36649 16.0373 5.13688 15.7622 4.8442 15.5683C4.55152 15.3745 4.20855 15.2705 3.85751 15.2691H3.67205C3.0934 15.2691 2.53844 15.0392 2.12927 14.6301C1.7201 14.2209 1.49023 13.6659 1.49023 13.0873C1.49023 12.5086 1.7201 11.9537 2.12927 11.5445C2.53844 11.1353 3.0934 10.9055 3.67205 10.9055H3.77023C4.13132 10.897 4.48151 10.7801 4.77529 10.57C5.06906 10.3599 5.29283 10.0663 5.41751 9.72727C5.56272 9.39824 5.60604 9.03324 5.54188 8.67936C5.47771 8.32547 5.309 7.99892 5.05751 7.74182L4.99205 7.67636C4.78919 7.47373 4.62827 7.2331 4.51847 6.96823C4.40867 6.70336 4.35215 6.41945 4.35215 6.13273C4.35215 5.846 4.40867 5.56209 4.51847 5.29722C4.62827 5.03235 4.78919 4.79172 4.99205 4.58909C5.19468 4.38623 5.43531 4.2253 5.70018 4.11551C5.96505 4.00571 6.24896 3.94919 6.53569 3.94919C6.82241 3.94919 7.10633 4.00571 7.3712 4.11551C7.63606 4.2253 7.87669 4.38623 8.07933 4.58909L8.14478 4.65455C8.40188 4.90604 8.72843 5.07475 9.08232 5.13891C9.43621 5.20308 9.8012 5.15976 10.1302 5.01455H10.2175C10.5402 4.87626 10.8153 4.64664 11.0092 4.35396C11.203 4.06128 11.307 3.71831 11.3084 3.36727V3.18182C11.3084 2.60316 11.5383 2.04821 11.9475 1.63904C12.3566 1.22987 12.9116 1 13.4902 1C14.0689 1 14.6238 1.22987 15.033 1.63904C15.4422 2.04821 15.6721 2.60316 15.6721 3.18182V3.28C15.6735 3.63104 15.7775 3.97401 15.9713 4.26669C16.1651 4.55937 16.4403 4.78899 16.763 4.92727C17.092 5.07249 17.457 5.11581 17.8109 5.05164C18.1648 4.98748 18.4913 4.81877 18.7484 4.56727L18.8139 4.50182C19.0165 4.29896 19.2571 4.13803 19.522 4.02823C19.7869 3.91843 20.0708 3.86192 20.3575 3.86192C20.6442 3.86192 20.9281 3.91843 21.193 4.02823C21.4579 4.13803 21.6985 4.29896 21.9011 4.50182C22.104 4.70445 22.2649 4.94508 22.3747 5.20995C22.4845 5.47482 22.541 5.75873 22.541 6.04545C22.541 6.33218 22.4845 6.61609 22.3747 6.88096C22.2649 7.14583 22.104 7.38646 21.9011 7.58909L21.8357 7.65455C21.5842 7.91165 21.4155 8.2382 21.3513 8.59209C21.2872 8.94597 21.3305 9.31096 21.4757 9.64V9.72727C21.614 10.0499 21.8436 10.3251 22.1363 10.5189C22.429 10.7128 22.7719 10.8168 23.123 10.8182H23.3084C23.8871 10.8182 24.442 11.0481 24.8512 11.4572C25.2604 11.8664 25.4902 12.4213 25.4902 13C25.4902 13.5787 25.2604 14.1336 24.8512 14.5428C24.442 14.9519 23.8871 15.1818 23.3084 15.1818H23.2102C22.8592 15.1832 22.5162 15.2872 22.2235 15.4811C21.9309 15.6749 21.7012 15.9501 21.563 16.2727Z" fill="#343434" stroke="#D9D9D9" stroke-width="1.65714" stroke-linecap="round" stroke-linejoin="round"/>
<path d="M13.4903 16.2725C15.2977 16.2725 16.763 14.8072 16.763 12.9998C16.763 11.1923 15.2977 9.72703 13.4903 9.72703C11.6828 9.72703 10.2175 11.1923 10.2175 12.9998C10.2175 14.8072 11.6828 16.2725 13.4903 16.2725Z" fill="#343434" stroke="#D9D9D9" stroke-width="1.65714" stroke-linecap="round" stroke-linejoin="round"/>
</svg>
