<svg width="24" height="26" viewBox="0 0 24 26" fill="none" xmlns="http://www.w3.org/2000/svg">
<path d="M10.8234 10.2675C11.0318 8.84827 11.1653 5.65731 8.79343 3.20609C6.42156 0.75487 3.33392 0.89274 1.96066 1.10823C1.51303 1.17848 1.1727 1.53019 1.10472 1.9928C0.896215 3.41203 0.762797 6.60299 3.13464 9.05421C5.5065 11.5054 8.59411 11.3675 9.96735 11.152C10.415 11.0819 10.7553 10.7302 10.8234 10.2675ZM10.8234 10.2675L10.8235 25.0286L10.8234 10.2675ZM18.7243 18.6661C21.7039 16.8883 22.3826 13.6846 22.5365 12.2347C22.5859 11.7696 22.3458 11.3397 21.9313 11.1514C20.6394 10.5641 17.6154 9.56976 14.6358 11.3476C11.656 13.1256 10.9775 16.3292 10.8235 17.779C10.7741 18.2442 11.0143 18.6741 11.4287 18.8625C12.7206 19.4496 15.7446 20.444 18.7243 18.6661Z" fill="#272727"/>
<path d="M10.8234 10.2675C11.0318 8.84827 11.1653 5.65731 8.79343 3.20609C6.42156 0.75487 3.33392 0.89274 1.96066 1.10823C1.51303 1.17848 1.1727 1.53019 1.10472 1.9928C0.896215 3.41203 0.762797 6.60299 3.13464 9.05421C5.5065 11.5054 8.59411 11.3675 9.96735 11.152C10.415 11.0819 10.7553 10.7302 10.8234 10.2675ZM10.8234 10.2675L10.8235 25.0286M18.7243 18.6661C21.7039 16.8883 22.3826 13.6846 22.5365 12.2347C22.5859 11.7696 22.3458 11.3397 21.9313 11.1514C20.6394 10.5641 17.6154 9.56976 14.6358 11.3476C11.656 13.1256 10.9775 16.3292 10.8235 17.779C10.7741 18.2442 11.0143 18.6741 11.4287 18.8625C12.7206 19.4496 15.7446 20.4441 18.7243 18.6661Z" stroke="#272727" stroke-width="1.65714" stroke-linecap="round"/>
</svg>
