<svg width="56" height="56" viewBox="0 0 56 56" fill="none" xmlns="http://www.w3.org/2000/svg">
<circle cx="28" cy="28" r="28" fill="#8EB87A"/>
<path d="M22.6904 35H20.2557L14.3464 25.3686H14.2722C14.2942 25.6932 14.3134 26.0371 14.3299 26.4002C14.352 26.7634 14.3685 27.1375 14.3795 27.5227C14.396 27.9078 14.4097 28.2984 14.4207 28.6946V35H12.6215V22.9339H15.0397L20.9407 32.4993H20.9985C20.9875 32.2187 20.9737 31.8968 20.9572 31.5337C20.9407 31.1705 20.9242 30.7964 20.9077 30.4113C20.8967 30.0206 20.8884 29.6437 20.8829 29.2806V22.9339H22.6904V35ZM27.8238 35H25.8596V22.9339H32.6767V24.601H27.8238V28.3645H32.3631V30.0234H27.8238V35ZM40.0137 24.4442C39.436 24.4442 38.9188 24.5488 38.4621 24.7578C38.011 24.9669 37.6286 25.2695 37.315 25.6657C37.0013 26.0563 36.762 26.5323 36.5969 27.0935C36.4319 27.6492 36.3493 28.2764 36.3493 28.9752C36.3493 29.9106 36.4814 30.7166 36.7455 31.3934C37.0096 32.0646 37.4112 32.5818 37.9504 32.945C38.4896 33.3026 39.1719 33.4814 39.9972 33.4814C40.5089 33.4814 41.0069 33.4319 41.491 33.3329C41.9752 33.2338 42.4759 33.099 42.9931 32.9285V34.6121C42.5034 34.8047 42.0082 34.945 41.5075 35.033C41.0069 35.121 40.4291 35.1651 39.7744 35.1651C38.5419 35.1651 37.5185 34.9092 36.7042 34.3975C35.8954 33.8858 35.2902 33.1651 34.8885 32.2352C34.4924 31.3053 34.2943 30.2159 34.2943 28.967C34.2943 28.0536 34.4208 27.2173 34.6739 26.458C34.927 25.6987 35.2957 25.044 35.7799 24.4937C36.2641 23.938 36.861 23.5116 37.5708 23.2145C38.2861 22.9119 39.1031 22.7606 40.022 22.7606C40.6272 22.7606 41.2214 22.8294 41.8047 22.9669C42.3934 23.099 42.9381 23.2888 43.4388 23.5364L42.7455 25.1705C42.3274 24.9724 41.8899 24.8019 41.4333 24.6588C40.9766 24.5158 40.5034 24.4442 40.0137 24.4442Z" fill="#343434"/>
</svg>
